<svg id="visual" viewBox="0 0 900 600" width="900" height="600" xmlns="http://www.w3.org/2000/svg" xmlns:xlink="http://www.w3.org/1999/xlink" version="1.1"><rect x="0" y="0" width="900" height="600" fill="#000"></rect><path d="M0 254L129 372L257 360L386 388L514 319L643 352L771 277L900 343L900 601L771 601L643 601L514 601L386 601L257 601L129 601L0 601Z" fill="#696cff"></path><path d="M0 421L129 350L257 418L386 327L514 318L643 427L771 398L900 369L900 601L771 601L643 601L514 601L386 601L257 601L129 601L0 601Z" fill="#001fa0"></path><path d="M0 409L129 400L257 424L386 385L514 453L643 411L771 429L900 438L900 601L771 601L643 601L514 601L386 601L257 601L129 601L0 601Z" fill="#000000"></path><path d="M0 472L129 503L257 478L386 509L514 480L643 435L771 450L900 463L900 601L771 601L643 601L514 601L386 601L257 601L129 601L0 601Z" fill="#001fa0"></path><path d="M0 527L129 555L257 525L386 557L514 519L643 537L771 563L900 546L900 601L771 601L643 601L514 601L386 601L257 601L129 601L0 601Z" fill="#696cff"></path></svg>